<svg xmlns="http://www.w3.org/2000/svg" viewBox="0 0 512 512"><defs><style>.cls-1{fill:none;}.cls-2{opacity:0.15;}.cls-3{opacity:0.05;}</style></defs><title>dronitter-logo</title><g id="Layer_2" data-name="Layer 2"><rect class="cls-1" width="512" height="512"/></g><g id="Layer_1" data-name="Layer 1"><g class="cls-2"><path d="M392.6,177.3c-15.38-26.64-44.94-41.68-80.17-44.41,20.78,2.28,39.09,10.59,52.29,25.25C402.35,200,384.25,277.6,324.3,331.55s-139.06,63.78-176.69,22S128.07,234.06,188,180.11c30.32-27.29,65.54-43.28,97.82-47-27.54,2.42-57,11.58-85.06,27.77C125.27,204.47,88.7,282.52,119.12,335.2s116.29,60,191.81,16.43S423,230,392.6,177.3Z" transform="translate(0)"/><path d="M285.85,133.09a159.81,159.81,0,0,1,26.58-.2A118.38,118.38,0,0,0,285.85,133.09Z" transform="translate(0)"/></g><g class="cls-3"><path d="M355.85,229.46c-5.22-19.48-21.39-34-43.24-41.73,12.78,5,23,13.34,28.83,24.86,16.73,32.87-7.9,79-55,103s-98.88,16.8-115.61-16.07,7.89-79,55-103c23.83-12.13,48.85-16.28,69.93-13.17-17.85-3.14-38.07-2.34-58.58,3.15-55.22,14.8-91.62,58-81.3,96.54S219.33,340.79,274.55,326,366.17,268,355.85,229.46Z" transform="translate(0)"/><path d="M295.75,183.35a104.32,104.32,0,0,1,16.86,4.38A77.21,77.21,0,0,0,295.75,183.35Z" transform="translate(0)"/></g><path d="M428.28,126.32C403,92.73,360.34,77.25,312.07,79.41c28.59-.36,54.81,7.86,75.17,25.56,58,50.48,46.42,158.86-25.95,242.06S183.2,456.76,125.16,406.28s-46.41-158.86,26-242.06c36.6-42.08,81.73-69.65,124.91-80.11-37,7.88-75.43,25.22-110.8,51.87C70,207.74,33.39,319.75,83.44,386.17s167.82,62.1,263.05-9.66S478.33,192.74,428.28,126.32Z" transform="translate(0)"/><path d="M276,84.11a220.72,220.72,0,0,1,36-4.7A162.62,162.62,0,0,0,276,84.11Z" transform="translate(0)"/><path d="M276.26,252.81l-.47.06a20,20,0,0,0-17-16.65l-.46,0,17.79-152s-13.32,3.43-19.93,5.28-25.09,8.72-25.09,8.72l5,156.5a20.51,20.51,0,0,0,.13,4.08v.12h0a20,20,0,0,0,17,17c.28,0,.56,0,.84.07L236.34,427.51A130.2,130.2,0,0,0,257,421.77c11.17-4.12,24.38-8.26,24.38-8.26Zm-22.45,19.06a16,16,0,1,1,18.07-13.62A16,16,0,0,1,253.81,271.87Z" transform="translate(0)"/></g></svg>